<svg width="256" height="256" viewBox="0 0 256 256" fill="none" xmlns="http://www.w3.org/2000/svg">
<g clip-path="url(#clip0_295_4)">
<path d="M134.628 69.1793L134.03 255.986L26.2223 255.641C11.37 255.593 -0.755409 243.647 -0.708617 229.05L-0.0995011 39.0425C0.00803805 5.49674 25.1522 -9.65925 55.7051 5.41921L112.336 33.6412C124.608 39.6984 134.672 55.7354 134.628 69.1793Z" fill="#692A78"/>
<path d="M255.941 167.39L255.759 224.367C255.702 242.036 241.316 256.33 223.647 256.273L134.021 255.986L134.496 107.719L140.51 109.019L192.2 120.708L198.341 122.136L224.442 128.109C230.712 129.41 236.466 131.605 241.449 134.822C241.449 134.95 241.577 134.95 241.577 134.95C242.855 135.851 244.132 136.879 245.28 138.035C251.151 143.944 254.965 152.535 255.821 165.085C255.818 165.853 255.944 166.622 255.941 167.39Z" fill="#432F48"/>
<path d="M89.3276 98.9969L44.8986 98.8545C39.6491 98.8376 35.3098 94.4704 35.3266 89.2209C35.3435 83.9714 39.7107 79.6321 44.9602 79.6489L89.3891 79.7913C94.6387 79.8081 98.978 84.1754 98.9611 89.4249C98.9443 94.6744 94.7051 99.0141 89.3276 98.9969Z" fill="#933DA7"/>
<path d="M89.1635 150.212L44.7346 150.069C39.4851 150.053 35.1457 145.685 35.1626 140.436C35.1794 135.186 39.5466 130.847 44.7962 130.864L89.2251 131.006C94.4746 131.023 98.8139 135.39 98.7971 140.64C98.7803 145.889 94.5411 150.229 89.1635 150.212Z" fill="#933DA7"/>
<path d="M134.494 107.719L134.248 184.541C140.113 192.371 149.315 197.394 159.814 197.427C177.611 197.484 191.998 183.19 192.054 165.521L192.197 120.836L140.507 109.147L134.494 107.719Z" fill="#933DA7"/>
<path d="M255.818 165.085C254.962 152.535 251.149 143.944 245.278 138.035C244.129 136.879 242.852 135.851 241.574 134.95C241.574 134.95 241.446 134.95 241.447 134.822C236.464 131.605 230.709 129.41 224.439 128.109L198.339 122.136L192.197 120.708L192.054 165.521C191.997 183.062 206.163 197.576 223.96 197.633C241.117 197.688 254.86 184.288 255.938 167.518L255.939 167.39C255.941 166.622 255.816 165.853 255.818 165.085Z" fill="#933DA7"/>
</g>
<defs>
<clipPath id="clip0_295_4">
<rect width="256" height="256" fill="white"/>
</clipPath>
</defs>
</svg>
